Coordinates
version=1
nRows=13
nColumns=40
inDegrees=yes

Units are S.I. units (second, meters, Newtons, ...)
Angles are in degrees.

endheader
time	pelvis_tilt	pelvis_list	pelvis_rotation	pelvis_tx	pelvis_ty	pelvis_tz	hip_flexion_r	hip_adduction_r	hip_rotation_r	knee_angle_r	knee_angle_r_beta	ankle_angle_r	subtalar_angle_r	mtp_angle_r	hip_flexion_l	hip_adduction_l	hip_rotation_l	knee_angle_l	knee_angle_l_beta	ankle_angle_l	subtalar_angle_l	mtp_angle_l	lumbar_extension	lumbar_bending	lumbar_rotation	arm_flex_r	arm_add_r	arm_rot_r	elbow_flex_r	pro_sup_r	wrist_flex_r	wrist_dev_r	arm_flex_l	arm_add_l	arm_rot_l	elbow_flex_l	pro_sup_l	wrist_flex_l	wrist_dev_l
      9.17500000	     -3.98436698	     -4.07463403	      2.66160040	      0.92330816	      0.93752850	      0.40363283	     38.15295621	     -6.04201977	     -7.51393960	     56.22400246	     56.22400246	      1.13729691	    -12.22314291	     -0.85075410	      9.65509188	     -2.87511014	    -11.50303459	     13.41101834	     13.41101834	     10.60375903	     -6.05623385	     -7.22000840	    -11.07897966	      2.37525482	      2.24064558	     -5.38732238	    -11.49620456	     -6.37109304	     25.07194923	     46.80310941	      0.00000000	      0.00000000	     17.68874328	    -13.71096891	     -4.73162530	     54.52905557	     47.00741403	      0.00000000	      0.00000000
      9.18750000	     -3.80806893	     -3.67631037	      2.06885418	      0.92404456	      0.93793020	      0.40287394	     37.82860778	     -6.04330634	     -7.37729545	     52.54170547	     52.54170547	      0.98770874	    -11.26558748	     -0.52845180	      8.35937764	     -2.32772310	    -11.95816612	     12.57840978	     12.57840978	     10.76023364	     -6.04031483	     -6.92554449	    -11.29445821	      2.11990445	      2.93094524	     -6.53839700	    -11.52751048	     -6.41114725	     24.17061761	     46.83469451	      0.00000000	      0.00000000	     18.39399746	    -13.35010686	     -4.99186932	     56.01198824	     47.05263203	      0.00000000	      0.00000000
      9.20000000	     -3.60469960	     -3.03058532	      1.31578874	      0.92508052	      0.93834374	      0.40224017	     37.36692085	     -6.21268718	     -7.16123076	     48.65827228	     48.65827228	      0.83301469	     -9.96438842	     -0.49091728	      6.82335496	     -1.42765860	    -12.40693460	     11.40048349	     11.40048349	     10.87384683	     -6.19593901	     -6.25117504	    -11.57218278	      1.48894109	      3.69501607	     -7.55682972	    -11.50910564	     -6.56779590	     23.20206846	     46.88242556	      0.00000000	      0.00000000	     18.78870863	    -13.05795928	     -5.45074752	     58.35206208	     47.12209167	      0.00000000	      0.00000000
      9.21250000	     -3.47851378	     -2.33657110	      0.55357220	      0.92638742	      0.93862899	      0.40156701	     36.74113450	     -6.42822996	     -7.13758147	     44.37531328	     44.37531328	      0.21838192	     -8.62793573	     -1.86337759	      5.33891267	     -0.38039146	    -12.47820801	     10.15425781	     10.15425781	     11.17839024	     -6.74474446	     -4.49322723	    -11.74381433	      0.82040990	      3.36823206	     -7.61264136	    -11.46424531	     -7.50834761	     21.84973822	     47.03694688	      0.00000000	      0.00000000	     17.61510900	    -13.29351681	     -7.00615078	     62.92781312	     47.28783617	      0.00000000	      0.00000000
      9.22500000	     -3.31461744	     -1.79172619	     -0.23275644	      0.92800326	      0.93889540	      0.40111440	     35.89770336	     -6.45601786	     -7.37769482	     39.92552390	     39.92552390	      0.10605195	     -6.82273752	     -1.52376409	      3.88002047	      0.41781110	    -13.15008067	      9.04492951	      9.04492951	     11.32667898	     -6.49112200	     -4.01952574	    -11.76963564	      0.35958814	      4.04733449	     -8.53777702	    -11.64049176	     -7.62283722	     21.32971001	     47.06357191	      0.00000000	      0.00000000	     17.98381180	    -12.98464108	     -7.26636721	     64.33146017	     47.33024332	      0.00000000	      0.00000000
      9.23750000	     -3.11160813	     -1.12388216	     -1.06513535	      0.92987859	      0.93908478	      0.40085551	     34.86648205	     -6.57168177	     -7.73710759	     35.36503262	     35.36503262	      0.13570688	     -4.47704083	     -1.40921724	      2.23576216	      1.42110661	    -13.70403965	      7.65623053	      7.65623053	     11.54585556	     -6.11483553	     -3.01842202	    -11.96885631	     -0.33919864	      4.76864748	     -9.43107994	    -11.79711318	     -7.83000359	     21.03129669	     47.08950212	      0.00000000	      0.00000000	     18.07345108	    -12.67443798	     -7.63628150	     66.47364115	     47.39043893	      0.00000000	      0.00000000
      9.25000000	     -2.91889206	     -0.31044798	     -1.84125310	      0.93205293	      0.93915823	      0.40049843	     33.69004417	     -6.87712554	     -8.40877686	     30.70250223	     30.70250223	     -0.23186178	     -1.79834937	     -2.21544081	      0.69686699	      2.62731860	    -14.09304336	      6.51791587	      6.51791587	     12.87636086	     -5.61367008	      0.86791900	    -12.04330444	     -1.18212891	      4.50854824	     -9.93313347	    -11.95435104	     -8.70098696	     21.55711238	     47.14609416	      0.00000000	      0.00000000	     16.74447657	    -12.85320843	     -8.91837233	     71.08431912	     47.54159122	      0.00000000	      0.00000000
      9.26250000	     -2.66576902	      0.31173230	     -2.60940935	      0.93441807	      0.93903495	      0.40053299	     32.33905065	     -6.90797373	     -9.26305883	     26.16196831	     26.16196831	     -0.18719046	      1.09074916	     -1.61270685	     -0.89362447	      3.57959157	    -14.88029070	      5.33671969	      5.33671969	     13.34552761	     -4.77185391	      2.05123670	    -12.09020450	     -1.83593474	      5.15650152	    -10.67922033	    -12.11074973	     -8.88135959	     21.41847343	     47.16105009	      0.00000000	      0.00000000	     16.83951911	    -12.52779873	     -9.22832402	     72.83771152	     47.59097886	      0.00000000	      0.00000000
      9.27500000	     -2.46173729	      0.81538408	     -3.27267714	      0.93693277	      0.93867345	      0.40075576	     30.88808787	     -6.75666490	    -10.22947708	     21.71296359	     21.71296359	     -0.13648882	      3.80716915	     -0.60067482	     -2.30408045	      4.37784327	    -15.50142105	      4.39869808	      4.39869808	     13.91819668	     -4.06159842	      3.27847957	    -12.03433223	     -2.35934522	      5.57770628	    -11.35535521	    -12.33478427	     -9.06491806	     21.56704127	     47.16268547	      0.00000000	      0.00000000	     16.65670928	    -12.35707813	     -9.43808973	     74.60819136	     47.63307199	      0.00000000	      0.00000000
      9.28750000	     -2.26167843	      1.53853357	     -3.87428857	      0.93959196	      0.93821842	      0.40102399	     29.67820802	     -6.94559264	    -11.45077481	     18.12001229	     18.12001229	      0.61360188	      7.09694159	      2.08775962	     -3.52371829	      5.34881373	    -16.48307822	      3.94853669	      3.94853669	     16.44728382	     -2.30728852	      9.03484504	    -11.99560587	     -3.19136419	      5.26566221	    -11.85949744	    -12.50575809	     -9.55614501	     22.86311432	     47.12534436	      0.00000000	      0.00000000	     15.50210980	    -12.53767942	    -10.38441157	     78.22323736	     47.76064453	      0.00000000	      0.00000000
      9.30000000	     -2.08212676	      1.99626989	     -4.38213050	      0.94222468	      0.93732997	      0.40159525	     28.36349602	     -6.74692358	    -12.38955031	     14.70705385	     14.70705385	      0.68813209	      9.26419198	      3.22064448	     -4.79449419	      6.06798688	    -16.95197301	      3.18426015	      3.18426015	     16.82342405	     -1.73544735	      9.59357364	    -11.83835783	     -3.68937414	      5.74118805	    -12.37333222	    -12.63947210	     -9.57746154	     22.83550915	     47.11983598	      0.00000000	      0.00000000	     15.54718407	    -12.28741238	    -10.37398590	     79.29879524	     47.78109306	      0.00000000	      0.00000000
      9.31250000	     -1.88754600	      2.56404119	     -4.82986737	      0.94489617	      0.93650772	      0.40221152	     27.38308388	     -6.87401679	    -13.71005672	     12.49255918	     12.49255918	      1.81556634	     11.97597011	      6.79153599	     -5.87175807	      6.80905265	    -17.86147800	      2.94261145	      2.94261145	     18.98252603	     -0.24218628	     14.28525081	    -11.72837689	     -4.36389555	      5.68303221	    -12.86675065	    -12.82340164	     -9.43258732	     24.05503729	     47.01035709	      0.00000000	      0.00000000	     14.87430229	    -12.34549146	    -10.72071701	     81.64904753	     47.86268309	      0.00000000	      0.00000000
      9.32500000	     -1.79284775	      2.96692486	     -5.15240896	      0.94744302	      0.93523198	      0.40305216	     26.41316250	     -6.74811587	    -14.37055056	     10.48589239	     10.48589239	      1.82057684	     13.18840774	      7.34016974	     -6.87530728	      7.38215687	    -18.13146960	      2.49553095	      2.49553095	     19.34470775	      0.16317986	     14.60984437	    -11.44867289	     -4.83830654	      5.92414610	    -13.08116954	    -12.86560914	     -9.43164967	     24.20886510	     46.99732364	      0.00000000	      0.00000000	     14.86404488	    -12.24898267	    -10.65189812	     82.48720796	     47.87517362	      0.00000000	      0.00000000
